<?xml version="1.0" standalone="no"?><!DOCTYPE svg PUBLIC "-//W3C//DTD SVG 1.1//EN" "http://www.w3.org/Graphics/SVG/1.1/DTD/svg11.dtd"><svg class="icon" width="200px" height="200.00px" viewBox="0 0 1024 1024" version="1.1" xmlns="http://www.w3.org/2000/svg"><path fill="#333333" d="M957.220061 773.137509c-0.005117-125.81959-78.128405-233.373165-188.598402-277.240255 53.504588-35.664268 88.768743-96.4067 88.768743-165.408237 0-94.199429-65.700351-173.036985-153.880693-193.538925-0.815575-0.192382-1.588171-0.096191-2.329045 0.189312-1.004887-0.082888-1.974981-0.299829-2.996241-0.299829-18.842137 0-34.110889 15.238053-34.110889 34.024931 0 16.975627 12.490475 30.925337 28.78458 33.489742 2.899026 1.172709 6.700609 2.078335 6.853082 2.131547 51.066049 17.278525 87.816045 65.447595 87.816045 122.229832 0 63.322188-45.717228 115.939569-106.017592 126.936017-0.085958 0.017396-0.159636 0.171915-0.245593 0.211824-20.059871 1.26583-35.987632 17.72878-35.987632 38.055734 0 20.632923 16.397459 37.338397 36.884049 38.154995 0.144286 0.062422 0.268106 0.282433 0.416486 0.298805 121.268948 12.32777 207.235878 115.367541 207.235878 240.772692 0 18.566868 15.09479 33.613562 33.703613 33.613562 18.163685 0 32.865525-14.359033 33.57263-32.304753 0.01842-0.171915 0.132006-0.304945 0.132006-0.479931 0-0.067538-0.017396-0.132006-0.017396-0.202615l0 0c0.00307-0.211824 0.017396-0.414439 0.017396-0.623193l0-0.00307 0 0L957.221084 773.137509 957.220061 773.137509zM553.331337 501.476319c63.890122-42.688241 105.9828-115.305119 105.9828-197.767226 0-131.419122-106.812701-237.957577-238.576677-237.957577-131.760906 0-238.573607 106.538455-238.573607 237.957577 0 82.465177 42.094724 155.078984 105.97973 197.767226C156.062382 554.057885 62.686714 682.712033 62.686714 833.200466c0 8.476045 0.476861 16.817014 1.128707 25.119097l0.062422 0c0 18.310018 14.883989 33.156144 33.249265 33.156144 18.362206 0 33.244148-14.846126 33.244148-33.156144 0-1.040702-0.207731-2.010797-0.304945-3.02387-0.639566-7.297197-1.192152-14.616906-1.192152-22.095227 0-160.76959 130.669038-291.105031 291.860231-291.105031 161.196309 0 291.865347 130.335441 291.865347 291.105031 0 7.764847-0.552585 15.384385-1.233084 22.949688-0.010233 0.397043-0.113587 0.75827-0.113587 1.151219 0 0.115634 0.035816 0.234337 0.035816 0.358157-0.025583 0.214894-0.01842 0.440022-0.035816 0.661056l0.103354 0c0.552585 17.824971 15.134699 32.141024 33.143864 32.141024 18.013259 0 32.595372-14.307867 33.147958-32.141024l0.065492 0c0.624217-8.302083 1.071402-16.648169 1.071402-25.108864C778.791276 682.712033 685.410492 554.057885 553.331337 501.476319L553.331337 501.476319zM420.73746 474.633974c-94.643544 0-171.370019-76.526931-171.370019-170.924881 0-94.40102 76.726475-170.924881 171.370019-170.924881 94.646614 0 171.374112 76.523861 171.374112 170.924881C592.110549 398.10602 515.384074 474.633974 420.73746 474.633974L420.73746 474.633974zM420.73746 474.633974" /></svg>